<?xml version="1.0" standalone="no"?>
<!DOCTYPE svg PUBLIC "-//W3C//DTD SVG 20010904//EN"
 "http://www.w3.org/TR/2001/REC-SVG-20010904/DTD/svg10.dtd">
<svg version="1.0" xmlns="http://www.w3.org/2000/svg"
 width="754.000000pt" height="643.000000pt" viewBox="0 0 754.000000 643.000000"
 preserveAspectRatio="xMidYMid meet">

<g transform="translate(0.000000,643.000000) scale(0.100000,-0.100000)"
fill="#000000" stroke="none">
<path d="M3519 5843 c-91 -76 -187 -157 -215 -179 -27 -23 -175 -146 -329
-274 -154 -127 -311 -258 -350 -290 -131 -110 -559 -465 -920 -765 -198 -164
-364 -302 -369 -306 -6 -5 122 -9 287 -9 l297 0 40 36 40 36 0 -921 0 -921
175 0 175 0 0 920 0 920 -170 0 c-93 0 -170 3 -170 6 0 3 14 17 32 32 18 15
75 65 128 111 52 46 124 110 160 141 268 236 737 634 910 771 125 99 177 134
258 172 61 29 75 32 167 32 91 0 106 -3 165 -31 113 -54 210 -126 495 -370 72
-60 137 -117 145 -125 8 -8 49 -43 90 -79 41 -36 77 -67 80 -70 3 -3 168 -151
367 -328 l363 -322 329 2 329 3 -216 181 c-119 100 -467 390 -772 645 -305
254 -731 611 -947 791 -216 180 -396 328 -401 328 -4 0 -82 -62 -173 -137z"/>
<path d="M4003 4615 c-68 -21 -143 -75 -174 -124 -37 -57 -38 -100 -3 -132 22
-21 35 -24 97 -24 90 1 162 31 229 99 124 123 30 237 -149 181z"/>
<path d="M3155 4309 c-71 -41 -58 -124 31 -188 64 -46 124 -64 203 -59 88 5
111 22 111 85 0 37 -6 49 -38 81 -58 58 -123 85 -212 89 -44 2 -83 -1 -95 -8z"/>
<path d="M4350 4263 c-207 -36 -415 -215 -521 -450 -70 -153 -110 -386 -95
-547 l8 -79 67 129 c200 383 379 604 489 604 78 0 134 -116 133 -275 0 -143
-53 -320 -159 -531 -121 -241 -239 -418 -526 -792 -26 -33 182 107 334 224
157 122 389 354 488 488 196 266 280 522 253 769 -24 209 -98 348 -226 422
-64 37 -163 52 -245 38z"/>
<path d="M2834 4010 c-52 -16 -126 -73 -161 -124 -87 -127 -111 -399 -54 -613
84 -310 376 -637 773 -866 162 -93 172 -96 97 -28 -162 148 -340 382 -430 566
-80 165 -110 270 -116 417 -9 185 18 287 83 314 30 12 39 12 69 0 93 -39 218
-204 351 -460 59 -114 74 -137 81 -121 16 40 8 305 -11 375 -66 238 -236 441
-436 520 -62 24 -197 35 -246 20z"/>
<path d="M5030 3090 l0 -919 171 -3 c94 -2 173 -1 175 1 2 2 4 418 4 923 l0
918 -175 0 -175 0 0 -920z"/>
<path d="M1132 2000 c-58 -12 -97 -42 -116 -90 -21 -52 -20 -65 4 -115 24 -50
67 -76 175 -106 100 -27 113 -34 121 -63 12 -49 -41 -96 -109 -96 -43 0 -97
36 -111 75 -11 29 -13 30 -64 27 -51 -3 -52 -4 -46 -30 13 -57 49 -107 94
-132 58 -31 170 -35 242 -7 78 30 115 104 96 189 -16 74 -65 108 -206 144 -78
19 -114 48 -105 83 12 46 128 57 168 16 14 -13 25 -32 25 -41 0 -14 7 -16 52
-10 29 4 54 9 57 11 2 2 1 15 -3 29 -8 32 -51 83 -87 101 -36 19 -131 27 -187
15z"/>
<path d="M5131 1953 c1 -32 4 -46 6 -30 6 38 38 36 63 -5 11 -18 20 -28 20
-22 0 5 -6 19 -14 30 -13 16 -13 21 0 35 19 21 8 49 -20 48 -20 0 -20 -1 2
-10 32 -12 23 -33 -16 -37 -26 -3 -32 0 -32 17 0 10 6 22 13 24 7 3 5 6 -5 6
-15 1 -18 -8 -17 -56z"/>
<path d="M5453 1955 c0 -33 2 -45 4 -27 2 18 2 45 0 60 -2 15 -4 0 -4 -33z"/>
<path d="M5960 1956 c0 -47 3 -56 18 -55 10 0 12 3 5 6 -7 2 -13 14 -13 24 0
16 6 20 28 17 21 -2 27 -8 26 -26 0 -14 3 -19 9 -13 19 19 3 46 -31 49 -24 2
-32 8 -32 23 0 14 7 19 29 19 18 0 31 -6 34 -15 4 -11 4 -10 3 2 -1 13 -11 19
-39 21 l-37 3 0 -55z"/>
<path d="M3380 1955 l0 -45 50 0 50 0 0 45 0 45 -50 0 -50 0 0 -45z"/>
<path d="M4580 1725 l0 -275 55 0 55 0 0 120 0 120 110 0 110 0 0 -120 0 -120
55 0 55 0 0 276 0 275 -52 -3 -53 -3 -3 -107 -3 -108 -109 0 -110 0 0 110 0
110 -55 0 -55 0 0 -275z"/>
<path d="M5500 1963 c0 -24 2 -43 4 -43 8 0 12 60 4 72 -4 8 -8 -4 -8 -29z"/>
<path d="M3683 1953 c-39 -22 -43 -28 -43 -64 0 -35 -3 -39 -25 -39 -22 0 -25
-4 -25 -40 0 -36 3 -40 24 -40 l24 0 4 -139 c2 -117 6 -142 21 -159 22 -24 66
-34 118 -26 34 6 39 10 39 33 0 37 -11 49 -45 53 l-30 3 -3 118 -3 117 36 0
c34 0 35 1 35 40 0 39 -1 40 -35 40 l-35 0 0 65 c0 36 -3 65 -7 64 -5 -1 -27
-12 -50 -26z"/>
<path d="M5262 1968 c-13 -13 -16 -54 -4 -61 4 -3 7 9 7 26 0 25 4 32 20 32
13 0 19 -6 18 -19 -1 -13 2 -15 10 -7 7 7 6 15 -3 26 -15 18 -32 19 -48 3z"/>
<path d="M5377 1974 c12 -3 24 -13 27 -22 3 -12 4 -11 3 3 -2 14 -10 21 -27
22 -21 1 -21 1 -3 -3z"/>
<path d="M5767 1959 c4 -13 8 -18 11 -10 2 7 -1 18 -6 23 -8 8 -9 4 -5 -13z"/>
<path d="M5819 1963 c-12 -16 -12 -17 1 -7 8 6 22 14 30 17 13 5 12 6 -1 6 -9
1 -23 -7 -30 -16z"/>
<path d="M6145 1970 c-3 -6 1 -7 9 -4 18 7 21 14 7 14 -6 0 -13 -4 -16 -10z"/>
<path d="M6186 1967 c3 -10 9 -15 12 -12 3 3 0 11 -7 18 -10 9 -11 8 -5 -6z"/>
<path d="M6261 1959 c-13 -11 -21 -22 -17 -26 3 -3 6 -3 6 2 0 4 7 2 15 -5 13
-11 14 -10 9 4 -3 9 -1 23 6 31 17 20 10 18 -19 -6z"/>
<path d="M6332 1968 c-15 -15 -16 -52 -2 -43 6 4 7 11 4 17 -4 6 1 17 11 25
11 7 14 13 9 13 -6 0 -15 -5 -22 -12z"/>
<path d="M6495 1970 c-3 -6 1 -7 9 -4 18 7 21 14 7 14 -6 0 -13 -4 -16 -10z"/>
<path d="M6590 1965 c-6 -8 -10 -22 -7 -32 4 -14 5 -14 6 4 0 12 9 27 19 32 9
6 12 11 6 11 -6 0 -17 -7 -24 -15z"/>
<path d="M6692 1968 c-14 -14 -16 -54 -3 -62 4 -3 6 6 3 19 -2 14 1 32 8 40
15 18 9 20 -8 3z"/>
<path d="M5595 1959 c-4 -6 -5 -12 -2 -15 2 -3 7 2 10 11 7 17 1 20 -8 4z"/>
<path d="M6426 1953 c-4 -9 -2 -21 4 -27 7 -7 10 -2 10 17 0 31 -5 34 -14 10z"/>
<path d="M6538 1935 c-2 -19 0 -35 4 -35 4 0 8 16 8 35 0 19 -2 35 -4 35 -2 0
-6 -16 -8 -35z"/>
<path d="M6637 1929 c2 -57 13 -62 13 -6 0 26 -3 47 -7 47 -5 0 -7 -18 -6 -41z"/>
<path d="M6741 1944 c0 -11 3 -14 6 -6 3 7 2 16 -1 19 -3 4 -6 -2 -5 -13z"/>
<path d="M6131 1940 c0 -8 4 -22 9 -30 12 -18 12 -2 0 25 -6 13 -9 15 -9 5z"/>
<path d="M5355 1930 c-3 -6 1 -7 9 -4 18 7 21 14 7 14 -6 0 -13 -4 -16 -10z"/>
<path d="M5721 1924 c0 -11 3 -14 6 -6 3 7 2 16 -1 19 -3 4 -6 -2 -5 -13z"/>
<path d="M6489 1923 c-13 -17 -13 -17 6 -3 11 8 22 16 24 17 2 2 0 3 -6 3 -6
0 -17 -8 -24 -17z"/>
<path d="M5396 1915 c-3 -8 -1 -15 4 -15 6 0 10 7 10 15 0 8 -2 15 -4 15 -2 0
-6 -7 -10 -15z"/>
<path d="M5564 1917 c3 -10 6 -24 7 -30 0 -7 5 -1 10 12 5 13 7 26 4 29 -3 3
-5 -1 -5 -9 0 -12 -2 -11 -11 1 -9 12 -10 12 -5 -3z"/>
<path d="M5671 1914 c0 -11 3 -14 6 -6 3 7 2 16 -1 19 -3 4 -6 -2 -5 -13z"/>
<path d="M5771 1914 c0 -11 3 -14 6 -6 3 7 2 16 -1 19 -3 4 -6 -2 -5 -13z"/>
<path d="M6191 1914 c0 -11 3 -14 6 -6 3 7 2 16 -1 19 -3 4 -6 -2 -5 -13z"/>
<path d="M6366 1905 c-11 -8 -15 -15 -9 -15 6 0 16 7 23 15 16 19 11 19 -14 0z"/>
<path d="M6729 1903 c-13 -16 -12 -17 4 -4 16 13 21 21 13 21 -2 0 -10 -8 -17
-17z"/>
<path d="M5850 1900 c-9 -6 -10 -10 -3 -10 6 0 15 5 18 10 8 12 4 12 -15 0z"/>
<path d="M6598 1863 c7 -3 16 -2 19 1 4 3 -2 6 -13 5 -11 0 -14 -3 -6 -6z"/>
<path d="M6125 1850 c-36 -8 -68 -24 -84 -43 -10 -12 -16 -10 -42 14 -42 39
-118 41 -173 4 -20 -14 -39 -25 -41 -25 -3 0 -5 11 -5 25 0 23 -4 25 -45 25
l-45 0 0 -200 0 -200 50 0 50 0 0 113 c0 61 5 129 10 149 17 60 78 88 114 52
13 -13 16 -42 16 -165 l0 -150 53 3 52 3 -3 39 c-2 22 -1 85 3 140 8 113 27
146 85 146 48 0 60 -41 60 -200 l0 -130 50 0 50 0 0 143 c0 152 -9 204 -39
231 -25 23 -77 34 -116 26z"/>
<path d="M1649 1842 c-128 -56 -149 -291 -32 -368 89 -59 223 -31 269 57 13
26 13 26 -34 33 -42 6 -49 4 -65 -19 -39 -52 -125 -24 -142 48 l-7 27 136 0
137 0 -6 53 c-8 65 -40 124 -84 154 -27 18 -47 23 -95 22 -34 0 -68 -3 -77 -7z
m113 -73 c16 -9 48 -64 48 -84 0 -3 -39 -5 -86 -5 -74 0 -85 2 -80 16 3 9 6
19 6 23 0 5 9 20 21 35 22 28 56 34 91 15z"/>
<path d="M2040 1650 l0 -200 50 0 50 0 0 115 c0 128 14 180 52 194 13 5 33 5
45 0 20 -7 25 -4 38 27 19 45 19 50 -1 58 -41 16 -86 6 -115 -25 l-29 -31 0
31 c0 30 -1 31 -45 31 l-45 0 0 -200z"/>
<path d="M2453 1836 c-17 -8 -44 -34 -60 -57 -24 -36 -28 -54 -31 -123 -2 -70
1 -87 20 -121 30 -51 75 -80 134 -89 82 -11 157 22 189 84 l14 27 -47 7 c-42
6 -49 4 -67 -19 -42 -51 -123 -24 -140 48 l-7 27 131 0 131 0 0 48 c0 57 -33
127 -73 156 -36 26 -147 33 -194 12z m142 -81 c14 -13 25 -36 25 -50 0 -25 -1
-25 -81 -25 l-81 0 7 28 c17 69 84 94 130 47z"/>
<path d="M2860 1650 l0 -200 50 0 50 0 0 125 c0 93 4 134 15 155 29 56 90 67
124 24 19 -24 21 -40 21 -165 l0 -139 50 0 50 0 0 155 c0 167 -7 198 -52 229
-26 19 -119 21 -151 5 -12 -6 -32 -21 -44 -32 l-23 -20 0 31 c0 31 -1 32 -45
32 l-45 0 0 -200z"/>
<path d="M3380 1650 l0 -200 50 0 50 0 0 200 0 200 -50 0 -50 0 0 -200z"/>
<path d="M3890 1843 c0 -5 33 -95 74 -202 62 -160 73 -198 64 -215 -22 -43
-41 -56 -81 -56 -32 0 -38 -3 -33 -16 3 -9 6 -27 6 -41 0 -25 1 -25 65 -21
100 6 110 19 209 289 46 124 86 235 90 247 7 22 6 23 -45 20 l-52 -3 -48 -140
c-53 -160 -43 -163 -105 27 l-39 118 -52 0 c-29 0 -53 -3 -53 -7z"/>
<path d="M5264 1830 c-130 -66 -141 -272 -18 -350 82 -52 183 -47 250 12 51
45 67 83 68 158 1 76 -18 116 -77 164 -34 27 -47 31 -110 34 -57 2 -80 -1
-113 -18z m176 -100 c23 -32 27 -113 9 -153 -18 -40 -74 -61 -119 -45 -71 24
-89 159 -28 215 43 40 103 32 138 -17z"/>
<path d="M6494 1831 c-89 -54 -120 -187 -69 -294 57 -120 262 -125 324 -9 16
29 16 29 -35 37 -41 6 -47 4 -65 -19 -41 -52 -139 -17 -139 49 l0 25 130 0
130 0 0 28 c0 79 -45 159 -107 191 -35 18 -134 14 -169 -8z m150 -82 c14 -17
26 -39 26 -50 0 -17 -8 -19 -80 -19 -79 0 -80 0 -80 25 0 34 45 75 81 75 18 0
36 -10 53 -31z"/>
<path d="M1560 1181 c0 -13 -10 -20 -32 -25 -47 -9 -31 -12 45 -8 63 3 67 5
67 28 0 21 -4 24 -40 24 -32 0 -40 -4 -40 -19z"/>
<path d="M3116 1158 c2 -24 5 -81 8 -128 4 -65 9 -87 22 -97 30 -22 46 -16 40
15 -3 15 -8 78 -12 140 l-6 112 -28 0 c-27 0 -28 -2 -24 -42z"/>
<path d="M4440 1165 c0 -19 -1 -38 -2 -42 -2 -5 12 -9 30 -11 32 -3 32 -3 32
42 0 44 -1 46 -30 46 -28 0 -30 -3 -30 -35z"/>
<path d="M4538 1159 c3 -32 1 -39 -14 -39 -27 0 -10 -11 22 -13 35 -3 40 -31
6 -33 -12 -1 -26 -5 -30 -9 -4 -4 0 -6 8 -5 40 6 51 1 40 -20 -10 -19 -8 -20
35 -20 48 0 51 4 45 67 -1 22 2 23 64 22 77 -1 86 3 86 42 0 23 -6 32 -27 40
-31 12 -153 10 -153 -3 0 -4 5 -8 10 -8 6 0 10 -15 10 -34 0 -30 -2 -33 -24
-29 -21 4 -24 10 -23 41 2 33 0 36 -28 38 -30 2 -30 1 -27 -37z m195 9 c14
-22 1 -48 -23 -48 -15 0 -20 7 -20 28 0 44 22 54 43 20z"/>
<path d="M6065 1193 c-19 -4 -20 -11 -18 -133 1 -72 -3 -130 -8 -130 -5 0 -11
10 -14 23 -5 25 -25 148 -25 160 0 4 -12 7 -26 7 -26 0 -27 -1 -20 -52 3 -29
6 -65 6 -80 0 -34 32 -68 64 -68 23 0 25 -9 18 -67 -1 -7 -24 -13 -54 -16 -29
-2 33 -3 137 -4 105 0 165 3 135 6 l-55 6 -3 38 c-3 33 -1 37 20 37 31 0 57
19 62 45 2 11 7 50 11 88 7 66 6 67 -18 67 -26 0 -37 -27 -37 -89 0 -35 -19
-101 -29 -101 -5 0 -8 12 -9 28 0 15 0 76 -1 135 l-1 108 -27 -4 -28 -4 -3
-177 c-2 -162 -4 -177 -20 -174 -15 3 -17 21 -19 172 -1 93 -5 172 -10 175 -4
4 -17 6 -28 4z"/>
<path d="M3022 1020 c4 -189 5 -191 97 -197 50 -3 64 0 81 17 11 11 20 25 20
31 0 6 -8 1 -18 -11 -13 -16 -29 -22 -57 -22 -61 0 -65 13 -65 189 l0 153 -31
0 -30 0 3 -160z"/>
<path d="M2933 1013 c-6 -87 -9 -160 -7 -162 2 -2 15 1 28 7 21 9 24 19 30 89
3 43 7 110 8 148 3 69 2 70 -23 73 l-25 3 -11 -158z"/>
<path d="M1422 1128 c2 -21 8 -33 18 -33 11 0 16 -14 17 -60 3 -57 5 -62 45
-98 47 -41 48 -39 -22 -77 -68 -37 -69 -42 -10 -37 31 3 72 15 92 27 l37 21
44 -25 c31 -18 58 -26 93 -26 l49 0 -68 41 -68 41 40 29 c45 34 53 50 53 115
0 37 3 44 19 44 14 0 19 7 19 29 0 31 -18 41 -75 41 -25 -1 -27 -2 -12 -11 21
-12 23 -49 2 -49 -15 0 -20 -20 -16 -76 2 -25 -5 -35 -38 -59 l-41 -28 -40 27
c-39 25 -40 28 -40 81 0 49 -2 55 -21 55 -11 0 -17 5 -14 10 14 23 -6 50 -36
50 -28 0 -30 -2 -27 -32z"/>
<path d="M3214 1113 c3 -27 8 -79 11 -118 10 -110 14 -124 45 -140 38 -20 43
-19 31 4 -6 10 -16 82 -22 160 l-12 141 -30 0 c-29 0 -29 0 -23 -47z"/>
<path d="M4463 1063 c9 -2 25 -2 35 0 9 3 1 5 -18 5 -19 0 -27 -2 -17 -5z"/>
<path d="M4728 1063 c12 -2 30 -2 40 0 9 3 -1 5 -23 4 -22 0 -30 -2 -17 -4z"/>
<path d="M4463 1033 c-9 -3 -13 -32 -13 -98 0 -81 -2 -94 -17 -98 -10 -3 72
-5 182 -5 110 0 192 2 183 5 -15 4 -18 17 -18 93 0 95 -3 100 -58 100 -20 0
-23 -3 -14 -12 29 -29 13 -37 -85 -41 l-98 -3 97 -2 98 -2 -1 -65 -1 -65 -103
0 c-91 0 -103 2 -101 17 2 9 11 20 22 24 18 7 18 8 -1 8 -18 1 -20 7 -19 53 1
29 3 59 5 67 4 14 -37 31 -58 24z"/>
<path d="M4588 883 c17 -2 47 -2 65 0 17 2 3 4 -33 4 -36 0 -50 -2 -32 -4z"/>
</g>
</svg>
